<?xml version="1.0" encoding="UTF-8"?>
<!DOCTYPE svg PUBLIC "-//W3C//DTD SVG 1.1//EN" "http://www.w3.org/Graphics/SVG/1.1/DTD/svg11.dtd">
<!-- Creator: CorelDRAW 2018 (64-Bit) -->
<svg xmlns="http://www.w3.org/2000/svg" xml:space="preserve" width="4.498mm" height="4.498mm" version="1.1" style="shape-rendering:geometricPrecision; text-rendering:geometricPrecision; image-rendering:optimizeQuality; fill-rule:evenodd; clip-rule:evenodd"
viewBox="0 0 13.71 13.71"
 xmlns:xlink="http://www.w3.org/1999/xlink"
 enable-background="new 0 0 17 17">
 <defs>
  <style type="text/css">
   <![CDATA[
    .fil0 {fill:#FEFEFE}
   ]]>
  </style>
 </defs>
 <g id="Слой_x0020_1">
  <metadata id="CorelCorpID_0Corel-Layer"/>
  <g id="_720928160">
   <g id="Layer_1">
   </g>
   <g id="Layer_2">
    <path class="fil0" d="M13.71 12.57l-2.86 -2.86c0.78,-1.02 1.24,-2.28 1.24,-3.66 0,-3.34 -2.71,-6.05 -6.05,-6.05 -3.34,0 -6.05,2.71 -6.05,6.05 0,3.34 2.71,6.05 6.05,6.05 1.38,0 2.65,-0.47 3.66,-1.24l2.86 2.86 1.14 -1.14zm-12.09 -6.52c0,-2.45 1.99,-4.43 4.43,-4.43 2.44,0 4.43,1.99 4.43,4.43 0,2.44 -1.99,4.43 -4.43,4.43 -2.45,0 -4.43,-1.99 -4.43,-4.43z"/>
   </g>
  </g>
 </g>
</svg>
