<?xml version="1.0" encoding="UTF-8"?>
<!DOCTYPE svg PUBLIC "-//W3C//DTD SVG 1.1//EN" "http://www.w3.org/Graphics/SVG/1.1/DTD/svg11.dtd">
<!-- Creator: CorelDRAW 2018 (64-Bit) -->
<svg xmlns="http://www.w3.org/2000/svg" xml:space="preserve" width="4.5013mm" height="4.5013mm" version="1.1" style="shape-rendering:geometricPrecision; text-rendering:geometricPrecision; image-rendering:optimizeQuality; fill-rule:evenodd; clip-rule:evenodd"
viewBox="0 0 19.72 19.72"
 xmlns:xlink="http://www.w3.org/1999/xlink">
 <defs>
  <style type="text/css">
   <![CDATA[
    .fil0 {fill:#EE3643}
   ]]>
  </style>
 </defs>
 <g id="Слой_x0020_1">
  <metadata id="CorelCorpID_0Corel-Layer"/>
  <g id="_720928160">
   <g id="Layer_1">
   </g>
   <g id="Layer_2">
    <path class="fil0" d="M19.72 18.06l-4.11 -4.11c1.12,-1.47 1.78,-3.28 1.78,-5.26 0,-4.8 -3.89,-8.69 -8.69,-8.69 -4.8,0 -8.69,3.89 -8.69,8.69 0,4.8 3.89,8.69 8.69,8.69 1.98,0 3.81,-0.68 5.26,-1.78l4.11 4.11 1.64 -1.64 0.01 -0.01zm-17.37 -9.37c0,-3.52 2.86,-6.37 6.37,-6.37 3.51,0 6.37,2.86 6.37,6.37 0,3.51 -2.86,6.37 -6.37,6.37 -3.52,0 -6.37,-2.86 -6.37,-6.37z"/>
   </g>
  </g>
 </g>
</svg>
